<svg xmlns="http://www.w3.org/2000/svg" viewBox="0 0 400 600">
  <!-- Background -->
  <rect width="400" height="600" fill="#f0f0f0"/>
  
  <!-- Email Frame -->
  <rect x="50" y="50" width="300" height="500" rx="8" fill="#ffffff" stroke="#dddddd" stroke-width="2"/>
  
  <!-- Header -->
  <rect x="50" y="50" width="300" height="60" rx="8" fill="#492d7d"/>
  <rect x="80" y="70" width="120" height="20" rx="4" fill="#ffffff" opacity="0.8"/>
  
  <!-- Hero Section -->
  <rect x="70" y="130" width="260" height="120" fill="#acffd9" opacity="0.5"/>
  <rect x="120" y="160" width="160" height="20" rx="4" fill="#333333"/>
  <rect x="160" y="190" width="80" height="20" rx="4" fill="#333333" opacity="0.6"/>
  
  <!-- Content Section -->
  <rect x="70" y="270" width="260" height="1" fill="#eeeeee"/>
  
  <!-- Product Section -->
  <rect x="80" y="290" width="80" height="80" fill="#f0f0f0"/>
  <rect x="180" y="300" width="130" height="15" rx="2" fill="#333333" opacity="0.8"/>
  <rect x="180" y="325" width="100" height="10" rx="2" fill="#666666" opacity="0.6"/>
  <rect x="180" y="345" width="70" height="15" rx="2" fill="#333333"/>
  
  <!-- CTA Button -->
  <rect x="130" y="400" width="140" height="40" rx="4" fill="#492d7d"/>
  <rect x="155" y="415" width="90" height="10" rx="2" fill="#ffffff"/>
  
  <!-- Footer -->
  <rect x="50" y="490" width="300" height="60" rx="8" fill="#f5f5f5"/>
  <rect x="150" y="510" width="100" height="10" rx="2" fill="#999999" opacity="0.6"/>
  <rect x="170" y="530" width="60" height="8" rx="2" fill="#999999" opacity="0.4"/>
  
  <!-- Email Icon -->
  <g transform="translate(175, 500) scale(0.6)">
    <path d="M40,0 L40,32 L0,32 L0,0 L40,0 Z M36,4 L4,4 L4,28 L36,28 L36,4 Z" fill="#492d7d" opacity="0.3"/>
    <path d="M20,18 L4,8 L4,28 L36,28 L36,8 L20,18 Z" fill="#492d7d" opacity="0.3"/>
    <path d="M20,14 L36,4 L4,4 L20,14 Z" fill="#492d7d" opacity="0.3"/>
  </g>
</svg>
